<svg width="693" height="1016" viewBox="0 0 693 1016" fill="none" xmlns="http://www.w3.org/2000/svg">
<path d="M77.75 946.125L78.875 973.25C78.875 974.917 78.2917 976.417 77.125 977.75C76.0417 979.083 74.625 979.75 72.875 979.75C71.125 979.75 69.6667 979.083 68.5 977.75C67.4167 976.417 66.875 975.083 66.875 973.75C66.875 972.417 67.0417 967.792 67.375 959.875C67.7917 951.958 68 944.292 68 936.875C68 929.458 67.9167 923.375 67.75 918.625C67.5833 913.792 67.375 909.917 67.125 907C66.9583 904.083 66.875 902.208 66.875 901.375H64.625C63.2917 901.375 62.0833 900.958 61 900.125C60 899.208 59.5 898.083 59.5 896.75C59.5 895.333 60 894.208 61 893.375C62.0833 892.458 63.125 892 64.125 892C65.2083 892 66.625 892.125 68.375 892.375C70.2083 892.625 72 892.75 73.75 892.75L92.25 892C97.25 892 102.25 893.75 107.25 897.25C109.833 899.083 111.917 901.708 113.5 905.125C115.083 908.542 115.875 912.5 115.875 917C115.875 924.25 113.958 930.292 110.125 935.125C106.375 939.875 101.833 943.375 96.5 945.625C100.75 947.708 105 951.292 109.25 956.375C113.583 961.375 118.125 967.417 122.875 974.5C127.708 981.583 131.417 986.667 134 989.75C136.583 992.833 139.5 995.625 142.75 998.125C146 1000.71 148.292 1002.63 149.625 1003.88C150.958 1005.21 151.625 1006.79 151.625 1008.63C151.625 1010.46 150.917 1012 149.5 1013.25C148.083 1014.58 146.208 1015.25 143.875 1015.25C140.708 1015.25 137.208 1012.88 133.375 1008.13C129.625 1003.38 125.792 997.625 121.875 990.875C117.958 984.125 113.833 977.375 109.5 970.625C105.25 963.792 100.333 958 94.75 953.25C89.1667 948.5 83.5 946.125 77.75 946.125ZM86.125 900.625L78.875 900.75C78.875 901.667 78.75 903.583 78.5 906.5C78 914.083 77.75 923.75 77.75 935.5V938.875C81.9167 940.042 84.8333 940.625 86.5 940.625C88.25 940.625 89.875 940.5 91.375 940.25C92.875 939.917 94.5833 939.333 96.5 938.5C98.4167 937.583 100.125 936.458 101.625 935.125C103.125 933.792 104.375 931.958 105.375 929.625C106.458 927.292 107 924.625 107 921.625C107 914.458 104.958 909.167 100.875 905.75C96.875 902.333 91.9583 900.625 86.125 900.625ZM176.385 937.375C172.718 941.042 170.885 945.542 170.885 950.875C170.885 956.208 172.718 960.75 176.385 964.5C180.135 968.167 184.635 970 189.885 970C195.218 970 199.676 968.167 203.26 964.5C206.843 960.75 208.635 956.208 208.635 950.875C208.635 945.542 206.843 941.042 203.26 937.375C199.676 933.708 195.218 931.875 189.885 931.875C184.635 931.875 180.135 933.708 176.385 937.375ZM181.385 979.75C176.051 979.75 171.593 977.667 168.01 973.5C164.426 969.333 162.635 964.125 162.635 957.875C162.635 951.542 164.593 945.458 168.51 939.625C172.426 933.708 177.01 929.292 182.26 926.375C187.51 923.458 192.801 922 198.135 922C203.468 922 207.926 924.083 211.51 928.25C215.093 932.417 216.885 937.667 216.885 944C216.885 950.25 214.926 956.333 211.01 962.25C207.093 968.083 202.51 972.458 197.26 975.375C192.01 978.292 186.718 979.75 181.385 979.75ZM274.182 949.625L275.182 972.25C275.182 974.5 274.598 976.333 273.432 977.75C272.348 979.083 271.015 979.75 269.432 979.75C267.848 979.75 266.557 979.125 265.557 977.875C264.557 976.542 264.057 974.75 264.057 972.5C264.057 970.25 264.265 967.042 264.682 962.875C265.515 954.542 265.932 947.5 265.932 941.75C265.932 939.25 265.14 936.875 263.557 934.625C262.057 932.292 261.307 930.208 261.307 928.375C261.307 926.542 261.932 925.042 263.182 923.875C264.432 922.625 265.848 922 267.432 922C271.598 922 273.682 925.292 273.682 931.875V936.75C276.182 932.25 279.182 928.667 282.682 926C286.182 923.333 289.39 922 292.307 922C295.223 922 297.432 922.75 298.932 924.25C300.515 925.667 301.307 927.583 301.307 930C301.307 932.417 300.723 934.458 299.557 936.125C298.39 937.708 297.14 938.5 295.807 938.5C294.473 938.5 293.432 938.167 292.682 937.5C292.015 936.75 291.515 936 291.182 935.25C290.848 934.417 290.223 933.667 289.307 933C288.39 932.25 287.223 931.875 285.807 931.875C283.39 931.875 280.973 933.458 278.557 936.625C276.14 939.792 274.682 944.125 274.182 949.625ZM391.388 963.125L391.138 980.625C391.138 988.792 387.554 996.583 380.388 1004C373.221 1011.5 365.221 1015.25 356.388 1015.25C351.971 1015.25 348.138 1014 344.888 1011.5C341.638 1009 340.013 1006.29 340.013 1003.38C340.013 1001.88 340.513 1000.54 341.513 999.375C342.596 998.208 343.846 997.625 345.263 997.625C346.763 997.625 348.096 998.042 349.263 998.875C350.513 999.708 351.638 1000.63 352.638 1001.63C353.721 1002.63 355.304 1003.54 357.388 1004.38C359.554 1005.21 361.971 1005.63 364.638 1005.63C369.888 1005.63 374.388 1003.67 378.138 999.75C381.888 995.917 383.763 991.333 383.763 986C383.763 978.667 383.721 973.458 383.638 970.375C379.804 976.625 375.013 979.75 369.263 979.75C364.513 979.75 360.721 978.042 357.888 974.625C355.138 971.208 353.221 967.042 352.138 962.125L347.388 940.625C346.888 938.208 345.763 936.083 344.013 934.25C342.346 932.333 341.513 930.417 341.513 928.5C341.513 926.583 342.179 925.042 343.513 923.875C344.846 922.625 346.304 922 347.888 922C349.471 922 350.763 922.292 351.763 922.875C352.763 923.458 353.596 924.333 354.263 925.5C355.179 927.25 355.888 929.375 356.388 931.875L361.888 958C362.804 962.083 364.013 965.208 365.513 967.375C367.096 969.458 369.513 970.5 372.763 970.5C376.013 970.5 378.596 969.292 380.513 966.875C382.513 964.375 383.513 961.292 383.513 957.625L382.638 929.5C382.638 927.25 383.179 925.458 384.263 924.125C385.429 922.708 386.804 922 388.388 922C389.971 922 391.263 922.667 392.263 924C393.263 925.25 393.763 927 393.763 929.25C393.763 931.417 393.513 934.5 393.013 938.5C391.929 947.167 391.388 955.375 391.388 963.125Z" fill="#240046"/>
<path d="M523.739 2.80421C520.006 4.67087 513.473 12.4042 498.939 31.7375C488.139 46.1375 475.073 64.0042 470.006 71.3375C464.939 78.6709 460.673 84.8042 460.539 85.0709C460.006 85.8709 452.539 81.6042 450.806 79.4709C449.739 78.2709 447.873 77.3375 446.539 77.3375C445.073 77.3375 444.006 76.6709 444.006 76.0042C444.006 74.1375 428.539 64.2709 414.806 57.4709C398.939 49.4709 385.606 44.5375 367.339 39.8709C352.806 36.1375 348.806 35.7375 324.006 35.0709C293.606 34.2709 278.806 35.6042 258.006 40.8042C179.073 60.5375 117.606 118.004 92.8061 195.338C90.9394 201.204 88.0061 212.004 86.4061 219.338C83.6061 232.138 83.3394 235.738 82.9394 307.471L82.5394 382.271L61.6061 382.938C37.4727 383.738 29.0727 385.738 19.2061 393.204C15.7394 395.871 10.9394 400.938 8.40607 404.404C-0.527265 417.604 0.00606815 403.071 0.00606815 630.671C0.00606815 832.538 0.00606817 837.071 2.67273 844.538C7.07273 857.604 15.7394 866.938 29.0727 873.604L35.3394 876.671L169.073 877.071C267.073 877.338 302.673 877.738 302.673 878.938C302.673 881.204 318.673 879.338 331.339 875.738C337.206 874.004 341.873 872.004 341.739 871.338C341.473 869.871 315.339 864.271 307.873 864.138L303.073 864.004L302.806 855.471L302.539 847.071L308.539 846.404C328.539 844.138 349.073 825.471 362.406 797.604C367.206 787.604 367.339 786.938 367.339 772.004C367.339 752.404 366.673 750.271 359.606 746.138C352.539 742.004 334.939 736.938 320.006 734.671C313.739 733.738 308.139 732.538 307.339 732.004C306.673 731.471 296.139 730.938 284.006 730.804C272.006 730.671 261.873 730.271 261.473 730.004C261.073 729.471 263.873 715.871 272.006 678.004C273.473 671.338 275.606 660.938 276.806 654.804L278.806 643.738L271.606 637.204C244.539 613.204 243.339 573.204 268.939 547.604C276.673 539.738 286.406 534.671 300.939 530.671C313.739 527.204 312.273 530.671 315.473 497.338C317.473 475.871 318.139 472.804 323.339 459.338C326.539 451.204 331.873 436.271 335.339 426.004C341.739 407.204 344.006 402.538 344.006 407.471C344.139 414.404 346.139 414.004 356.939 404.938L367.339 396.004L367.739 402.004C368.006 405.338 368.273 408.004 368.406 408.004C368.539 408.004 371.606 407.071 375.206 406.004C378.806 404.938 382.806 404.004 384.139 404.004C385.606 404.004 389.473 408.004 393.739 413.604C403.873 427.071 427.073 449.204 445.339 462.804C453.739 469.204 466.406 479.338 473.339 485.471C480.406 491.604 488.139 498.271 490.673 500.271C493.206 502.271 494.939 504.271 494.406 504.671C494.006 505.204 487.873 505.871 481.073 506.271C468.539 507.071 468.406 506.938 458.406 502.004C449.873 497.871 446.539 496.938 437.073 496.404C425.073 495.738 408.673 498.404 403.206 502.004C397.339 505.738 369.206 538.004 361.073 550.004L353.073 561.871L360.939 568.938C365.206 572.804 369.073 575.871 369.606 576.004C370.139 576.004 373.606 581.871 377.339 589.071C381.073 596.271 386.406 605.204 389.206 608.804C394.139 615.338 402.939 621.471 404.806 619.604C405.339 619.071 404.139 610.804 402.006 601.338C399.873 591.871 398.539 583.738 398.939 583.204C399.473 582.804 406.539 581.604 414.939 580.538C433.073 578.271 445.473 574.538 455.073 568.538C460.806 564.938 463.206 562.271 466.673 555.738C469.073 551.071 472.539 545.338 474.406 542.804C478.273 537.604 499.873 523.204 501.339 524.938C501.873 525.471 503.739 529.871 505.473 534.671C508.139 542.271 508.539 546.671 509.206 571.204L510.006 599.071L518.673 588.004C532.006 570.804 531.606 571.471 528.273 572.271C524.539 573.338 524.539 572.671 529.073 566.804C536.006 558.004 535.873 557.604 527.073 560.938C525.073 561.738 524.539 554.004 526.406 552.804C527.073 552.404 538.273 549.871 551.339 547.204C573.339 542.671 575.206 542.538 576.806 544.538C577.606 545.871 581.206 554.671 584.673 564.404C591.206 582.938 596.006 592.004 611.073 614.404C616.139 622.004 620.006 628.404 619.739 628.671C619.473 628.938 615.206 628.004 610.273 626.404C605.206 624.938 600.939 624.004 600.406 624.404C600.006 624.804 603.739 631.738 608.539 639.738C613.339 647.871 617.339 654.671 617.339 655.071C617.339 655.471 614.673 654.938 611.339 653.871C608.006 652.671 604.673 652.004 603.873 652.271C602.006 652.938 595.873 667.338 588.539 688.538L582.673 705.604V726.938V748.271L566.673 765.071L550.673 782.004L559.339 782.404C564.139 782.671 568.006 783.204 568.006 783.738C568.006 784.271 561.739 789.204 554.006 794.538C546.273 799.871 540.006 804.804 540.006 805.204C540.006 805.738 544.006 805.738 548.939 805.071C556.673 804.138 560.406 804.404 558.539 805.738C548.939 812.404 530.539 826.804 524.539 832.404C516.806 839.604 507.073 855.071 494.273 880.671C491.606 885.738 488.273 891.071 486.673 892.404C482.806 895.604 446.673 972.404 446.673 977.338C446.673 982.804 455.606 977.738 478.806 959.071C483.606 955.204 488.406 952.004 489.206 952.004C490.139 952.004 494.539 948.538 499.073 944.271C503.606 940.138 510.006 935.204 513.339 933.338C518.406 930.671 544.539 911.871 546.673 909.338C547.073 908.938 548.806 907.604 550.673 906.404C552.539 905.204 558.006 901.204 562.673 897.471C567.473 893.738 572.806 889.471 574.673 888.004C627.339 847.338 692.006 786.671 692.006 777.871C692.006 774.004 692.806 774.138 678.673 777.338C672.539 778.671 667.206 779.604 666.939 779.338C666.673 779.071 671.873 772.538 678.406 764.804C691.873 749.204 693.606 746.538 692.139 744.271C691.339 742.938 688.539 743.071 679.339 744.671C672.939 745.738 667.473 746.538 667.206 746.271C667.073 746.138 672.539 738.804 679.339 730.004C686.273 721.204 691.873 712.671 692.006 711.071C692.006 708.404 691.073 708.138 680.406 707.338L668.673 706.271L679.739 696.138C687.206 689.204 690.673 685.071 690.673 682.938C690.673 680.271 690.139 680.004 682.406 680.004L674.006 679.871L683.073 671.471C688.406 666.271 692.006 661.871 692.006 660.271C692.006 657.871 690.939 657.338 682.806 656.538C674.139 655.738 673.473 655.471 672.673 652.138C671.339 645.738 650.939 516.671 651.206 516.271C651.473 516.138 655.073 517.204 659.473 518.671C673.873 523.604 674.139 520.671 660.806 503.871C655.339 496.938 651.073 491.204 651.339 490.938C651.473 490.671 654.406 491.871 657.873 493.604C662.673 495.871 664.406 496.138 665.606 494.938C666.939 493.604 666.939 492.804 665.739 490.938C653.606 473.471 643.473 450.671 636.806 426.538L632.406 410.404L641.739 379.471L651.073 348.671L644.139 270.671L637.206 192.671L629.873 168.138C611.073 105.071 589.606 53.7375 568.139 20.4042C562.273 11.0709 560.139 8.93754 554.273 6.13754C547.873 2.93754 536.006 -0.129128 530.806 0.0042051C529.606 0.137538 526.406 1.33754 523.739 2.80421ZM542.139 34.4042C550.406 40.4042 559.206 50.8042 568.539 64.9375C581.073 84.2709 583.339 89.2042 605.873 146.938L626.539 199.871L628.539 224.938C631.473 260.271 633.339 300.271 633.739 331.338L634.006 358.004L626.406 379.871C622.139 391.871 618.406 402.004 618.006 402.538C617.473 402.938 603.073 398.538 585.873 392.804L554.539 382.271L548.673 375.471L542.939 368.671L546.806 353.338C550.939 337.604 562.673 281.338 562.673 277.738C562.673 276.004 562.273 276.004 560.673 277.338C559.473 278.271 558.273 278.671 557.873 278.271C557.473 277.871 559.339 269.871 562.006 260.404C566.539 244.404 566.806 241.604 568.006 214.671C568.673 198.938 569.206 182.271 569.339 177.604C569.339 169.471 569.206 169.338 566.139 170.138C563.073 170.804 562.939 170.671 562.006 158.004C561.473 150.938 560.673 145.604 560.273 146.004C559.739 146.538 558.406 149.338 557.206 152.404L554.939 158.004L553.473 152.004C551.206 143.471 546.539 130.671 545.206 130.004C544.006 129.204 536.406 141.871 528.139 158.404C522.806 168.938 510.673 197.471 510.673 199.338C510.673 199.738 513.339 199.738 516.673 199.204C520.139 198.804 522.673 198.938 522.673 199.604C522.673 200.804 514.673 224.671 512.673 229.738C511.739 231.871 512.139 232.138 516.539 231.338C519.206 230.804 521.339 230.538 521.339 230.804C521.339 231.071 519.473 237.071 517.339 244.004C512.406 259.871 512.406 260.404 516.673 258.404C521.206 256.404 521.873 257.471 519.339 263.471C515.606 272.271 509.473 297.738 508.539 308.404C508.006 314.004 507.206 318.271 506.539 317.871C504.806 316.804 485.206 284.671 477.206 270.004C473.339 262.671 466.939 249.604 463.206 240.804L456.273 224.938L441.739 215.604C433.873 210.538 427.073 206.138 426.806 205.871C426.539 205.604 428.673 202.271 431.606 198.404C442.939 183.338 451.339 168.004 471.073 126.538C476.539 115.071 483.739 101.471 487.206 96.1375C495.073 84.0042 534.806 30.6709 536.006 30.6709C536.539 30.6709 539.339 32.4042 542.139 34.4042ZM334.673 118.671C347.873 120.804 364.806 126.271 377.606 132.671C390.539 139.071 406.673 150.138 406.673 152.538C406.673 153.338 400.539 167.604 392.939 184.004C385.339 200.538 361.873 252.004 340.673 298.271L302.273 382.671H233.873H165.339V314.671C165.339 250.138 165.473 246.138 168.139 233.738C179.739 180.804 218.139 139.071 269.606 123.471C275.739 121.604 284.006 119.471 288.006 118.804C298.273 117.204 324.406 117.071 334.673 118.671ZM444.406 516.804C450.539 519.871 453.339 523.871 453.339 529.871C453.339 534.404 452.539 536.004 447.473 540.671C438.406 549.471 424.673 551.738 413.739 546.538C402.406 541.071 401.206 530.671 410.673 522.138C416.539 516.804 419.606 515.738 417.073 520.004C415.606 522.271 415.739 523.338 417.339 526.404C420.006 530.938 428.139 532.138 432.139 528.538C435.073 525.871 435.473 519.604 432.806 517.471C431.206 516.138 430.806 516.404 430.406 518.938C430.139 521.071 428.939 522.138 426.539 522.404C422.539 522.938 420.406 519.471 422.806 516.538C424.939 513.871 439.073 514.138 444.406 516.804Z" fill="#240046"/>
<path d="M359.073 828.804C358.139 831.471 361.339 833.738 363.606 831.871C365.606 830.138 364.406 826.671 361.873 826.671C360.806 826.671 359.606 827.604 359.073 828.804Z" fill="black"/>
<path d="M348.939 835.471C347.073 837.471 348.139 840.004 350.806 840.004C352.673 840.004 353.339 839.338 353.073 837.738C352.673 835.338 350.406 834.138 348.939 835.471Z" fill="black"/>
<path d="M337.473 844.538C336.273 845.871 336.406 846.671 337.873 847.871C339.206 849.071 340.006 848.938 341.206 847.471C342.406 846.138 342.273 845.338 340.806 844.138C339.473 842.938 338.673 843.071 337.473 844.538Z" fill="black"/>
<path d="M360.939 843.471C359.073 845.338 360.006 848.138 362.406 847.738C363.606 847.471 364.673 846.404 364.673 845.471C364.673 843.338 362.273 842.138 360.939 843.471Z" fill="black"/>
<path d="M326.806 849.871C324.939 852.138 325.873 854.671 328.673 854.671C331.606 854.671 332.539 852.004 330.406 849.871C328.673 848.138 328.273 848.138 326.806 849.871Z" fill="black"/>
<path d="M348.673 852.004C347.606 853.871 349.073 856.004 351.473 856.004C352.539 856.004 353.339 854.804 353.339 853.338C353.339 850.538 350.139 849.604 348.673 852.004Z" fill="black"/>
<path d="M337.339 858.538C337.339 860.538 338.139 861.338 340.139 861.338C343.473 861.338 343.073 856.938 339.606 856.271C338.006 856.004 337.339 856.671 337.339 858.538Z" fill="black"/>
</svg>
